<svg xmlns="http://www.w3.org/2000/svg" xmlns:xlink="http://www.w3.org/1999/xlink" preserveAspectRatio="xMidYMid" width="54.5" height="409.19" viewBox="0 0 54.5 409.19">
  <defs>
    <style>
      .cls-1 {
        fill: #262626;
        fill-rule: evenodd;
      }
    </style>
  </defs>
  <g>
    <path d="M53.156,370.087 C50.185,370.639 46.843,372.019 45.271,372.721 C44.767,371.941 44.185,371.221 43.513,370.549 L38.640,365.678 C37.968,365.012 37.242,364.424 36.468,363.926 C37.170,362.348 38.550,359.007 39.102,356.037 C39.294,355.005 40.632,354.711 41.250,355.557 C42.306,357.008 43.351,358.875 43.039,360.272 L50.263,357.375 C51.241,356.979 52.220,357.957 51.824,358.934 L48.919,366.151 C50.317,365.840 52.184,366.884 53.636,367.939 C54.488,368.557 54.188,369.895 53.156,370.087 ZM41.886,372.175 C46.387,376.680 45.925,383.916 41.328,387.887 L31.049,382.002 L36.210,391.013 L17.404,401.578 L10.659,397.942 L13.731,403.641 L4.580,408.783 C4.070,409.065 3.554,409.191 3.062,409.191 C0.914,409.191 -0.832,406.803 0.404,404.601 L12.177,383.658 L20.524,388.721 L14.716,379.146 L20.068,369.637 C22.078,366.061 25.739,364.160 29.441,364.160 C32.153,364.160 34.890,365.179 37.014,367.304 L41.886,372.175 Z" class="cls-1"/>
    <path d="M41.237,271.586 C41.878,271.631 42.521,271.677 43.154,271.702 C41.581,274.068 39.456,276.122 36.831,277.640 C34.205,279.155 31.369,279.980 28.543,280.158 C28.842,279.577 29.141,278.984 29.429,278.381 C30.927,278.196 32.413,277.809 33.856,277.214 C33.873,277.181 33.888,277.156 33.895,277.128 C33.946,276.947 34.108,276.762 34.108,276.762 L34.024,276.551 L34.209,276.288 C34.209,276.288 34.418,275.947 34.549,275.844 C34.680,275.741 35.778,274.791 36.017,274.612 C36.224,274.448 37.135,273.763 37.534,273.439 C37.588,273.395 37.632,273.353 37.669,273.326 C37.931,273.090 38.433,272.458 38.612,272.167 C38.701,272.034 38.838,271.697 38.966,271.374 L38.963,271.374 C39.726,271.458 40.486,271.530 41.237,271.586 ZM22.625,272.878 C22.553,272.867 22.646,272.917 22.707,272.949 C22.687,272.910 22.662,272.884 22.625,272.878 ZM36.912,271.538 C37.102,271.561 37.352,271.543 37.539,271.538 L37.595,271.538 C37.779,271.538 37.936,271.458 38.224,271.300 L38.246,271.288 L38.246,271.288 C38.014,271.258 37.775,271.229 37.543,271.196 C37.311,271.161 37.077,271.133 36.844,271.095 C37.009,271.224 37.121,271.330 37.074,271.349 C36.939,271.405 36.704,271.511 36.912,271.538 ZM22.708,272.949 C22.710,272.951 22.711,272.953 22.711,272.956 C22.778,272.986 22.751,272.973 22.708,272.949 ZM28.627,258.796 C28.627,258.796 28.639,258.811 28.655,258.828 C28.671,258.799 28.627,258.796 28.627,258.796 ZM34.949,262.973 L34.909,262.973 L34.873,263.123 C34.706,263.735 34.538,264.357 34.360,264.976 C34.504,264.979 34.638,264.992 34.638,264.992 C34.638,264.992 34.794,264.922 34.840,264.719 C34.881,264.517 34.999,264.290 34.999,264.290 C34.999,264.290 35.040,264.298 35.111,264.313 C35.155,264.231 35.208,264.114 35.208,263.972 C35.208,263.690 35.083,263.628 35.083,263.473 C35.083,263.317 35.144,262.942 35.144,262.942 L34.949,262.973 ZM34.114,265.808 L34.030,266.092 L34.159,266.069 C34.159,266.069 34.192,266.158 34.239,266.285 C34.270,266.216 34.289,266.163 34.289,266.163 C34.289,266.163 34.289,266.074 34.245,265.892 C34.239,265.863 34.180,265.833 34.114,265.808 ZM35.753,259.792 L35.713,259.771 C35.621,260.149 35.535,260.526 35.439,260.899 C35.504,260.939 35.457,260.952 35.722,260.963 C36.099,260.983 35.837,260.983 36.118,260.983 C36.400,260.983 36.445,261.016 36.495,260.897 C36.543,260.782 36.560,260.963 36.560,260.651 C36.560,260.336 36.412,260.207 36.314,260.124 C36.214,260.044 36.049,259.923 35.753,259.792 ZM53.746,268.194 C52.902,271.349 43.727,271.727 32.086,269.396 C28.275,280.669 23.362,288.446 20.215,287.603 C18.230,287.069 17.347,283.212 17.547,277.509 C17.615,277.545 17.684,277.587 17.749,277.621 C14.950,276.000 12.525,273.651 10.792,270.646 C9.278,268.012 8.458,265.169 8.278,262.333 C8.831,262.622 9.393,262.898 9.964,263.176 C12.003,264.154 14.142,265.048 16.312,265.847 L16.306,265.847 L16.312,265.961 L16.000,266.516 L15.711,266.697 L15.789,266.828 L15.841,267.091 L15.682,267.091 C15.682,267.091 15.682,267.456 15.682,267.669 C15.682,267.879 16.103,267.958 16.103,267.958 L15.972,268.040 C15.972,268.040 16.000,268.168 16.130,268.381 C16.261,268.593 16.365,268.778 16.419,268.957 C16.472,269.141 16.550,269.662 16.550,269.662 C16.550,269.662 16.893,270.240 17.049,270.482 C17.207,270.715 17.522,271.033 17.653,271.296 C17.784,271.559 18.072,271.427 18.621,271.559 C19.173,271.689 19.405,271.874 19.405,271.874 C19.405,271.874 19.696,272.108 19.880,272.215 C20.061,272.317 20.245,272.317 20.743,272.317 C21.220,272.317 20.909,272.345 21.491,272.436 L21.585,272.448 C22.284,272.551 21.731,272.501 22.397,272.807 L22.424,272.820 C22.587,272.892 22.673,272.926 22.721,272.951 C22.772,273.073 22.749,273.301 22.767,273.395 C22.794,273.526 22.978,273.370 23.109,273.370 C23.209,273.370 23.233,273.448 23.346,273.520 C23.380,273.543 23.421,273.560 23.474,273.579 C23.708,273.657 23.761,273.501 23.761,273.501 L24.025,273.815 L24.235,274.104 L24.025,274.605 L23.842,274.788 C23.842,274.788 23.871,274.552 23.842,274.363 C23.814,274.182 23.659,274.448 23.659,274.448 L23.501,274.946 L24.075,275.501 L24.249,275.657 L24.625,276.002 L24.650,276.069 L24.864,276.686 L24.835,276.895 L24.966,277.241 C24.966,277.241 24.800,277.312 24.650,277.345 C24.592,277.359 24.540,277.371 24.494,277.371 C24.417,277.371 24.325,277.462 24.249,277.554 C24.166,277.653 24.101,277.764 24.101,277.764 C24.101,277.764 24.161,277.881 24.249,278.003 C24.305,278.081 24.371,278.159 24.442,278.210 C24.479,278.240 24.512,278.253 24.544,278.281 C24.573,278.284 24.600,278.292 24.629,278.295 C24.622,278.309 24.616,278.318 24.610,278.328 L24.610,278.328 L24.613,278.328 L24.535,278.462 L24.535,278.462 C24.307,278.856 24.021,279.341 23.691,279.855 C21.773,279.483 19.916,278.815 18.190,277.875 C18.193,277.876 18.196,277.878 18.200,277.879 C18.251,281.324 18.894,283.557 20.152,283.895 C22.535,284.535 26.400,278.171 29.590,268.865 C28.248,268.565 26.886,268.228 25.503,267.853 C10.900,263.929 -0.132,257.721 0.866,253.988 C1.399,251.998 5.240,251.114 10.928,251.314 C10.862,251.425 10.800,251.543 10.738,251.654 C12.357,248.790 14.731,246.304 17.780,244.541 C20.815,242.781 24.133,241.964 27.405,241.983 C27.290,241.981 27.172,241.977 27.053,241.978 C29.724,236.944 32.413,234.045 34.395,234.578 C38.118,235.579 37.965,248.265 34.052,262.903 C33.687,264.290 33.292,265.644 32.888,266.958 C42.523,268.843 49.946,268.670 50.595,266.278 C50.931,265.018 49.322,263.345 46.372,261.579 C46.372,261.570 46.372,261.562 46.372,261.556 C46.322,263.526 45.970,265.478 45.332,267.331 C44.722,267.364 44.163,267.366 43.710,267.366 L43.710,267.366 C43.341,267.366 43.051,267.360 42.879,267.353 C42.384,267.335 41.888,267.313 41.388,267.275 C41.476,266.967 41.555,266.741 41.568,266.614 C41.594,266.453 41.683,266.207 41.683,266.207 L41.097,266.072 L41.029,265.688 L40.782,265.644 L40.555,266.077 C40.555,266.077 40.377,266.347 40.172,266.456 C39.972,266.567 39.701,266.591 39.701,266.591 L39.766,266.280 C39.658,266.233 39.430,266.322 39.430,266.322 L39.405,266.027 C39.405,266.027 39.271,265.732 39.159,265.713 C39.047,265.688 38.864,265.441 38.864,265.441 C38.864,265.441 38.797,265.349 38.730,265.168 C38.727,265.163 38.720,265.157 38.710,265.149 L38.743,264.994 C38.743,264.994 38.956,264.757 39.132,264.548 C39.308,264.338 39.368,264.757 39.550,264.910 C39.731,265.060 39.670,265.296 39.670,265.296 C39.670,265.296 39.788,265.357 39.938,265.357 C40.091,265.357 40.148,265.475 40.148,265.475 L40.449,265.594 L40.748,265.263 C40.748,265.263 40.806,265.054 41.016,265.054 C41.225,265.054 41.049,265.322 41.049,265.475 C41.049,265.626 41.198,265.475 41.614,265.296 C42.032,265.119 41.850,265.146 42.241,264.935 C42.630,264.726 42.421,264.785 42.568,264.666 C42.722,264.548 42.839,264.428 42.839,264.428 L43.166,264.641 L43.528,264.579 L43.889,264.368 L43.889,264.641 C43.889,264.641 43.651,264.941 43.797,265.146 C43.948,265.357 43.975,265.296 43.889,265.566 C43.797,265.836 43.856,265.836 43.889,265.988 C43.912,266.099 43.919,266.113 43.920,266.179 C45.279,261.720 44.866,256.734 42.359,252.380 C41.159,250.290 39.590,248.548 37.782,247.182 C37.835,246.514 37.875,245.851 37.903,245.192 C40.262,246.768 42.309,248.901 43.823,251.534 C45.562,254.551 46.380,257.844 46.375,261.096 C46.375,261.008 46.377,260.923 46.377,260.834 C51.389,263.507 54.278,266.200 53.746,268.194 ZM30.900,247.411 C30.900,247.411 31.089,247.305 31.182,247.262 C31.280,247.222 31.182,247.211 31.089,247.144 C30.995,247.077 30.874,247.196 30.874,247.196 C30.874,247.196 30.821,247.250 30.768,247.369 C30.763,247.381 30.758,247.390 30.754,247.396 C30.702,247.459 30.646,247.296 30.634,247.211 C30.620,247.115 30.272,247.181 30.285,247.181 C30.299,247.181 30.366,247.355 30.366,247.355 C30.366,247.355 30.394,247.518 30.394,247.584 C30.394,247.652 30.394,247.770 30.447,247.852 C30.500,247.934 30.646,248.055 30.646,248.055 L30.754,247.987 L30.792,247.959 L30.955,247.690 L31.089,247.571 L30.900,247.411 ZM28.756,246.221 C28.756,246.221 28.778,246.030 28.883,246.055 C28.988,246.073 29.093,245.801 29.093,245.801 C29.093,245.801 29.007,245.634 28.904,245.634 C28.798,245.634 28.568,245.656 28.568,245.656 L28.504,245.528 C28.504,245.528 28.378,245.507 28.209,245.570 C28.040,245.634 27.997,245.485 27.997,245.485 L27.976,245.232 L27.743,245.296 L27.575,245.148 C27.575,245.148 27.513,245.021 27.617,245.021 C27.720,245.021 27.868,245.043 27.868,245.043 L28.079,244.895 L27.995,244.728 L28.141,244.561 C28.141,244.561 27.848,244.410 27.783,244.521 C27.720,244.623 27.487,244.709 27.487,244.709 C27.487,244.709 27.510,244.645 27.384,244.476 C27.260,244.306 27.446,244.223 27.172,244.285 C27.009,244.322 26.880,244.403 26.802,244.463 C26.743,244.504 26.709,244.538 26.709,244.538 C26.709,244.538 26.414,244.600 26.397,244.706 C26.373,244.808 26.754,244.874 26.754,244.874 C26.754,244.874 26.775,244.844 26.802,244.818 C26.857,244.757 26.958,244.674 27.029,244.748 C27.132,244.852 27.216,244.981 27.216,244.981 L26.817,245.191 L26.802,245.177 L26.605,245.021 L26.207,245.021 L26.018,245.105 L25.639,245.148 C25.639,245.148 25.703,245.336 25.703,245.443 C25.703,245.551 25.535,245.656 25.535,245.656 L25.310,245.635 L25.281,245.634 L25.048,245.801 C25.048,245.801 24.796,245.823 24.691,245.904 C24.674,245.920 24.656,245.930 24.637,245.932 C24.540,245.958 24.439,245.893 24.439,246.032 C24.439,246.200 24.459,246.285 24.336,246.307 C24.307,246.314 24.273,246.320 24.237,246.326 C24.103,246.355 23.937,246.392 23.937,246.392 C23.937,246.392 23.809,246.454 23.704,246.560 C23.602,246.662 23.367,246.728 23.367,246.728 L23.333,246.718 L22.947,246.641 L22.401,246.875 L22.386,246.908 L22.274,247.172 L21.915,247.214 C21.915,247.214 21.619,247.361 21.600,247.465 C21.590,247.518 21.534,247.567 21.483,247.603 C21.436,247.636 21.390,247.656 21.390,247.656 C21.390,247.656 21.180,247.740 21.074,247.822 C20.970,247.905 20.842,248.072 20.842,248.072 L20.755,248.263 L20.905,248.476 L20.568,248.516 L20.608,248.684 C20.776,248.852 20.883,248.936 20.987,248.852 C21.090,248.765 21.028,248.701 21.153,248.661 C21.227,248.634 21.361,248.590 21.477,248.548 C21.561,248.518 21.637,248.490 21.679,248.471 C21.783,248.431 21.953,248.283 22.078,248.283 C22.206,248.283 22.330,248.262 22.330,248.262 L22.379,248.222 L22.666,247.988 L23.003,248.138 L23.278,248.097 C23.278,248.097 23.278,248.166 23.327,248.219 C23.346,248.237 23.370,248.252 23.406,248.263 C23.529,248.305 23.719,248.305 23.719,248.305 C23.719,248.305 23.823,248.156 23.972,248.156 L24.232,248.156 L24.348,248.156 L24.391,247.967 L24.629,248.078 L24.662,248.094 L24.852,248.241 C24.852,248.241 24.768,248.263 24.978,248.347 C25.106,248.396 25.225,248.380 25.301,248.356 C25.347,248.341 25.379,248.324 25.379,248.324 L25.738,248.408 C25.738,248.408 25.760,248.071 25.653,248.071 C25.545,248.071 25.339,247.967 25.339,247.967 L25.570,247.883 L25.822,247.841 L25.886,248.116 L26.285,247.988 L26.222,247.756 L26.243,247.396 L26.621,247.459 L26.644,247.711 C26.644,247.711 26.717,247.745 26.799,247.762 C26.888,247.787 26.980,247.790 26.980,247.711 C26.980,247.563 26.896,247.459 27.001,247.459 C27.106,247.459 27.318,247.396 27.318,247.396 L27.420,247.246 L27.569,246.908 L27.735,247.163 L27.968,247.014 L27.925,246.801 L28.429,246.568 C28.429,246.568 28.727,246.526 28.855,246.526 C28.978,246.526 29.020,246.488 29.020,246.488 C29.020,246.488 29.104,246.319 28.978,246.319 C28.858,246.323 28.756,246.221 28.756,246.221 ZM23.727,254.386 L23.517,254.488 L24.002,254.722 L24.240,254.734 L24.418,254.745 C24.418,254.745 24.546,254.531 24.569,254.322 C24.578,254.223 24.602,254.182 24.640,254.151 C24.683,254.118 24.748,254.095 24.841,254.026 C25.007,253.901 24.969,253.858 24.927,253.731 C24.893,253.635 24.727,253.648 24.640,253.660 C24.608,253.663 24.589,253.666 24.589,253.666 L24.240,253.840 L24.209,253.857 L24.042,253.644 L23.809,253.708 L23.578,253.941 C23.555,253.919 23.727,253.964 23.727,253.964 C23.727,253.964 23.788,253.941 23.959,253.964 C24.126,253.986 23.917,254.131 23.917,254.131 L23.581,254.216 L23.727,254.386 ZM24.528,249.450 L24.240,249.469 L24.232,249.469 C24.232,249.469 24.176,249.770 24.240,249.948 C24.243,249.959 24.248,249.968 24.252,249.980 C24.313,250.099 24.436,250.220 24.640,250.249 C24.721,250.261 24.814,250.258 24.927,250.232 C25.114,250.192 25.171,250.180 25.182,250.180 L25.157,250.189 C25.157,250.189 25.193,250.180 25.182,250.180 L25.312,250.130 L25.476,250.064 C25.476,250.064 25.747,249.898 25.747,249.749 C25.747,249.598 25.514,249.645 25.326,249.645 L25.312,249.645 C25.139,249.643 25.154,249.618 25.074,249.412 C24.989,249.199 24.989,249.536 24.989,249.536 C24.989,249.536 24.905,249.517 24.823,249.327 C24.737,249.136 24.718,248.989 24.718,248.989 L24.643,249.028 L24.406,249.156 L24.468,249.283 L24.528,249.450 ZM24.316,255.502 C24.316,255.502 24.401,255.606 24.528,255.779 C24.581,255.851 24.616,255.827 24.640,255.779 C24.674,255.714 24.698,255.610 24.756,255.610 C24.860,255.610 24.779,255.779 24.905,255.758 C25.031,255.737 25.304,255.736 25.304,255.736 L25.312,255.745 L25.493,255.948 C25.493,255.948 25.704,255.843 25.725,255.736 C25.747,255.632 25.747,255.632 25.915,255.632 C26.082,255.632 26.020,255.610 26.231,255.441 C26.441,255.276 26.167,255.128 25.998,255.041 C25.829,254.957 25.974,254.809 25.974,254.809 L25.998,254.511 C25.998,254.511 25.998,254.409 25.974,254.258 C25.953,254.111 25.911,254.005 25.890,253.858 C25.869,253.711 25.723,253.755 25.723,253.755 L25.723,253.564 C25.723,253.564 26.038,253.564 26.144,253.522 C26.248,253.482 26.144,253.269 26.144,253.269 C26.144,253.269 25.894,253.167 25.704,253.103 C25.514,253.041 25.640,252.999 25.956,252.977 C26.269,252.956 25.998,252.809 25.998,252.809 L25.746,252.662 C25.746,252.662 25.619,252.830 25.409,252.915 C25.363,252.933 25.331,252.952 25.310,252.973 C25.235,253.046 25.284,253.134 25.219,253.231 L25.219,253.397 L25.310,253.554 L25.366,253.652 C25.366,253.652 25.347,253.739 25.310,253.831 C25.291,253.878 25.270,253.927 25.240,253.968 C25.155,254.095 25.281,254.244 25.281,254.244 C25.281,254.244 25.281,254.517 25.240,254.668 C25.199,254.815 24.879,254.539 24.879,254.539 L24.817,254.899 L24.639,254.899 L24.525,254.899 L24.567,255.090 L24.639,255.145 L24.755,255.237 L24.879,255.427 L24.639,255.339 L24.525,255.301 L24.316,255.502 ZM21.015,245.989 L20.656,246.369 C20.656,246.369 20.970,246.432 21.078,246.409 C21.139,246.397 21.311,246.285 21.486,246.163 C21.614,246.075 21.742,245.989 21.837,245.926 C22.069,245.777 22.153,245.823 22.153,245.823 L22.238,245.989 L21.731,246.286 L22.322,246.201 L22.392,246.135 L22.619,245.926 L22.852,245.651 L23.209,245.673 L23.343,245.624 L23.649,245.507 C23.649,245.507 23.902,245.341 24.010,245.148 C24.091,244.999 24.147,245.084 24.248,245.107 C24.278,245.116 24.307,245.116 24.346,245.105 C24.512,245.066 24.431,244.916 24.431,244.768 C24.431,244.697 24.530,244.690 24.651,244.692 C24.773,244.695 24.914,244.706 24.980,244.661 C25.104,244.574 24.875,244.408 24.706,244.364 L24.651,244.351 C24.519,244.319 24.450,244.304 24.431,244.175 C24.418,244.098 24.340,244.074 24.251,244.078 C24.166,244.082 24.074,244.111 24.012,244.153 C23.887,244.239 23.635,244.257 23.716,244.090 C23.729,244.063 23.750,244.055 23.761,244.037 C23.109,244.175 22.457,244.351 21.810,244.567 C21.957,244.563 22.019,244.574 22.115,244.574 C22.241,244.574 21.988,244.724 21.988,244.724 C21.988,244.724 21.611,244.852 21.503,244.936 L21.491,244.948 C21.400,245.034 21.442,245.170 21.442,245.170 C21.442,245.170 21.462,245.170 21.491,245.170 C21.559,245.168 21.681,245.164 21.756,245.148 C21.859,245.124 21.946,245.084 22.217,244.914 C22.306,244.861 22.357,244.832 22.392,244.815 C22.472,244.782 22.475,244.800 22.574,244.745 C22.721,244.656 22.614,244.976 22.614,244.976 L23.013,244.827 L23.337,244.813 L23.455,244.806 L23.581,244.573 L23.337,244.521 L23.203,244.489 L23.330,244.362 L23.337,244.362 C23.395,244.362 23.761,244.364 23.876,244.386 C24.004,244.405 23.876,244.553 23.876,244.553 L23.836,244.719 L23.689,244.994 C23.689,244.994 23.499,245.017 23.352,245.017 L23.337,245.017 C23.193,245.026 23.037,245.185 23.037,245.185 L22.742,245.394 L22.389,245.394 L22.319,245.394 L22.255,245.627 L21.918,245.587 C21.918,245.587 21.879,245.482 21.856,245.335 C21.833,245.185 21.689,245.335 21.689,245.335 C21.689,245.335 21.629,245.584 21.486,245.693 C21.459,245.714 21.430,245.728 21.393,245.735 C21.185,245.777 21.015,245.989 21.015,245.989 ZM25.599,243.756 C25.418,243.773 25.238,243.790 25.059,243.812 C25.082,243.817 25.100,243.826 25.158,243.838 C25.283,243.859 25.179,243.900 25.179,244.004 C25.179,244.072 25.210,244.100 25.313,244.119 C25.366,244.128 25.438,244.138 25.540,244.153 C25.835,244.194 25.642,244.066 25.602,243.815 C25.599,243.793 25.596,243.772 25.599,243.756 ZM24.464,244.004 C24.464,244.004 24.487,243.961 24.504,243.897 C24.473,243.903 24.444,243.906 24.413,243.911 C24.456,243.948 24.464,244.004 24.464,244.004 ZM26.875,243.672 C26.852,243.722 26.835,243.775 26.842,243.838 C26.864,244.026 26.905,243.838 27.032,243.796 C27.108,243.768 27.126,243.740 27.140,243.671 C27.057,243.669 26.968,243.672 26.875,243.672 ZM14.543,249.261 L14.808,249.279 L15.144,249.068 L15.481,249.170 L15.291,249.258 C15.291,249.258 15.105,249.530 15.060,249.658 C15.017,249.783 15.564,249.761 15.564,249.761 C15.564,249.761 15.711,249.360 15.711,249.192 C15.711,249.026 16.152,248.917 16.152,248.917 L16.277,248.580 L16.490,248.730 C16.490,248.730 16.614,248.496 16.593,248.393 C16.569,248.287 16.193,248.265 16.193,248.265 L16.569,248.076 L16.948,248.181 L16.863,248.917 L17.241,248.917 L17.325,249.046 C17.325,249.046 16.800,249.339 16.694,249.339 C16.592,249.339 16.357,249.616 16.357,249.616 L16.148,249.850 C16.148,249.850 16.233,249.976 16.399,250.018 C16.564,250.058 16.564,250.165 16.564,250.165 C16.564,250.165 16.797,250.081 16.797,249.954 C16.797,249.828 16.712,249.788 16.712,249.788 C16.712,249.788 16.899,249.575 17.027,249.428 C17.151,249.279 17.825,248.985 17.952,248.836 C18.076,248.689 17.992,248.585 17.992,248.585 L18.308,248.394 C18.308,248.394 18.393,247.995 18.434,247.891 C18.474,247.787 18.918,247.574 19.233,247.342 C19.549,247.108 19.592,247.089 20.010,246.982 C20.433,246.876 20.138,246.831 20.114,246.705 C20.093,246.578 19.757,246.875 19.757,246.875 L19.253,246.725 C19.253,246.725 19.463,246.725 19.673,246.558 C19.886,246.392 19.841,246.517 19.988,246.454 C20.138,246.392 20.093,246.326 20.093,246.326 L20.325,246.326 C20.325,246.326 20.515,246.139 20.621,245.968 C20.725,245.801 20.958,245.482 20.958,245.482 C20.958,245.482 20.433,245.780 20.326,245.820 C20.224,245.859 20.053,245.780 19.927,245.780 C19.799,245.780 19.613,245.989 19.401,246.073 C19.190,246.160 18.959,246.286 18.959,246.286 L18.646,246.224 L18.394,246.326 L17.784,246.580 C17.784,246.580 17.887,246.496 18.143,246.347 C18.396,246.197 18.646,246.050 18.646,246.050 L19.047,245.947 L19.080,245.741 C18.919,245.827 18.760,245.907 18.597,246.000 C17.061,246.902 15.700,248.005 14.543,249.261 ZM30.378,266.430 C30.802,265.079 31.210,263.681 31.593,262.242 C35.002,249.501 35.395,238.535 32.478,237.752 C31.221,237.414 29.554,239.025 27.791,241.983 C27.770,241.983 27.755,241.983 27.735,241.983 C29.711,242.029 31.668,242.382 33.528,243.026 C33.563,243.636 33.566,244.199 33.564,244.653 C33.566,244.653 33.566,244.653 33.566,244.653 C33.564,245.021 33.560,245.315 33.553,245.487 C33.496,247.088 33.351,248.727 33.140,250.378 C33.061,250.351 32.974,250.331 32.894,250.325 C32.668,250.309 32.662,250.322 32.665,250.325 C32.662,250.322 32.475,250.165 32.407,250.045 C32.335,249.925 32.198,249.835 31.936,249.748 C31.674,249.658 31.693,249.852 31.693,249.852 C31.693,249.852 31.450,250.024 31.135,249.992 C30.835,249.957 30.760,250.294 30.755,250.320 L30.754,250.320 L30.528,250.514 C30.528,250.514 30.406,250.723 30.266,250.723 C30.126,250.723 30.023,250.757 30.023,250.757 C30.023,250.757 29.954,251.018 29.954,251.157 C29.954,251.297 29.814,251.317 29.814,251.317 C29.814,251.317 29.640,251.350 29.518,251.404 C29.397,251.454 29.275,251.526 29.152,251.595 C29.031,251.664 29.082,251.717 28.839,251.857 C28.596,251.995 28.509,252.048 28.509,252.048 L28.178,252.117 L28.350,252.291 L28.089,252.344 C28.089,252.344 28.070,252.500 28.105,252.622 C28.138,252.744 28.406,252.762 28.406,252.762 C28.406,252.762 28.231,252.902 28.021,252.991 C27.811,253.080 27.811,253.112 27.829,253.200 C27.847,253.289 27.968,253.480 28.315,253.567 C28.667,253.655 28.420,253.550 28.576,253.464 C28.736,253.375 28.906,253.324 28.906,253.324 C28.906,253.324 29.119,253.675 29.119,253.829 C29.119,253.985 29.066,254.282 29.085,254.389 C29.102,254.493 29.275,254.354 29.275,254.354 L29.119,254.527 C29.119,254.527 29.152,254.840 29.152,254.930 C29.152,255.018 29.462,254.963 29.462,254.878 C29.462,254.792 29.634,254.649 29.895,254.634 C30.155,254.616 30.123,254.583 30.123,254.373 C30.123,254.163 30.174,253.884 30.174,253.884 L30.472,253.796 C30.472,253.796 30.641,253.668 30.754,253.562 C30.783,253.534 30.805,253.506 30.822,253.482 C30.858,253.426 30.816,253.370 30.754,253.316 C30.701,253.272 30.635,253.226 30.593,253.188 C30.504,253.100 30.472,252.822 30.472,252.646 C30.472,252.473 30.472,252.542 30.492,252.419 C30.507,252.308 30.638,252.299 30.754,252.271 C30.765,252.268 30.775,252.265 30.786,252.262 C30.908,252.227 31.064,252.019 31.290,251.912 C31.516,251.804 31.168,251.790 31.168,251.790 C31.168,251.790 31.204,251.599 31.238,251.440 C31.272,251.282 31.724,251.493 31.724,251.493 L31.899,251.700 L31.690,251.859 L31.450,252.222 L31.103,252.677 L31.382,253.407 C31.382,253.407 31.623,253.528 31.780,253.509 C31.942,253.494 32.114,253.407 32.215,253.319 C32.260,253.284 32.481,253.222 32.724,253.169 L32.643,253.657 C32.564,253.689 32.475,253.623 32.277,253.623 C32.005,253.623 31.933,253.748 31.687,253.772 C31.439,253.799 31.587,253.970 31.587,254.093 C31.587,254.216 31.933,254.365 31.933,254.365 L31.662,254.538 C31.662,254.538 31.537,254.266 31.294,254.292 C31.051,254.317 31.146,254.637 30.995,254.760 C30.849,254.884 31.095,255.258 31.095,255.258 C31.095,255.258 30.917,255.279 30.755,255.370 C30.737,255.383 30.718,255.392 30.699,255.403 C30.528,255.525 30.478,255.429 30.478,255.429 C30.478,255.429 30.378,255.280 30.257,255.280 C30.132,255.280 29.956,255.477 29.833,255.525 C29.708,255.574 29.291,255.525 29.291,255.525 L29.018,255.227 L28.792,255.453 C28.792,255.453 28.596,255.403 28.471,255.253 C28.353,255.104 28.471,255.131 28.446,255.006 C28.423,254.884 28.373,254.884 28.373,254.884 L28.496,254.687 L28.817,254.488 C28.817,254.488 28.890,254.045 28.742,253.849 C28.593,253.649 28.593,254.045 28.593,254.045 L28.099,254.365 L28.125,255.034 L28.024,255.330 L27.832,255.283 L27.709,255.432 C27.709,255.432 27.585,255.357 27.391,255.283 C27.191,255.209 26.846,255.529 26.846,255.529 L26.802,255.639 L26.723,255.824 L26.452,255.774 L26.304,255.948 C26.304,255.948 26.132,255.948 26.006,255.948 C25.880,255.948 25.957,256.169 25.957,256.169 C25.957,256.169 25.872,256.268 25.776,256.305 L25.733,256.248 C25.589,256.229 25.552,256.248 25.465,256.320 C25.425,256.354 25.365,256.372 25.307,256.388 C25.237,256.404 25.176,256.411 25.176,256.411 L25.050,256.088 C25.050,256.088 24.960,255.923 24.873,256.053 C24.782,256.181 24.817,256.268 24.817,256.268 L24.854,256.488 L24.674,256.505 L24.639,256.494 L24.549,256.468 L24.238,256.280 L24.191,256.253 C24.191,256.253 23.976,256.216 24.015,256.358 C24.048,256.502 24.230,256.681 24.230,256.772 C24.230,256.784 24.235,256.790 24.241,256.796 C24.295,256.859 24.554,256.840 24.554,256.955 C24.554,257.081 24.389,257.225 24.389,257.225 C24.389,257.225 24.516,257.331 24.516,257.495 C24.516,257.657 24.479,257.890 24.442,257.996 C24.407,258.103 24.318,258.068 24.281,258.177 C24.272,258.205 24.254,258.234 24.238,258.264 C24.182,258.358 24.103,258.446 24.103,258.446 C24.103,258.446 23.833,258.518 23.742,258.481 C23.649,258.446 23.578,258.316 23.418,258.284 C23.381,258.275 23.352,258.275 23.330,258.278 C23.268,258.286 23.257,258.319 23.097,258.211 C22.879,258.066 22.810,258.013 22.665,257.959 C22.521,257.909 22.450,257.780 22.450,257.780 C22.450,257.780 22.421,257.763 22.384,257.744 C22.319,257.706 22.218,257.655 22.162,257.655 C22.071,257.655 21.929,257.818 21.929,257.818 C21.929,257.818 21.963,257.962 21.929,258.142 C21.896,258.321 21.963,258.412 21.858,258.484 C21.752,258.556 21.731,258.501 21.714,258.647 C21.695,258.791 21.786,258.719 21.643,258.863 C21.513,258.994 21.573,258.991 21.480,259.057 C21.468,259.063 21.456,259.073 21.445,259.081 C21.299,259.172 21.247,259.153 21.156,259.298 C21.065,259.442 21.031,259.600 21.031,259.730 C21.031,259.855 21.424,260.304 21.424,260.304 C21.424,260.304 21.451,260.311 21.480,260.320 C21.542,260.340 21.643,260.383 21.643,260.467 C21.643,260.595 21.495,260.648 21.643,260.739 C21.786,260.830 21.714,260.845 21.803,260.902 C21.847,260.928 22.116,260.987 22.384,261.043 C22.678,261.100 22.970,261.154 22.970,261.154 L23.168,261.010 L23.331,261.010 L23.509,261.010 L23.598,260.703 L23.868,260.686 L23.887,260.395 C23.887,260.395 23.852,260.107 23.940,260.107 C23.983,260.107 24.115,260.032 24.240,259.957 C24.364,259.880 24.479,259.800 24.479,259.800 C24.479,259.800 24.547,259.815 24.640,259.827 C24.777,259.849 24.963,259.863 25.018,259.818 C25.109,259.746 25.307,259.457 25.307,259.457 C25.307,259.457 25.266,259.226 25.312,259.128 C25.326,259.096 25.345,259.081 25.377,259.081 C25.520,259.081 25.864,259.100 25.971,259.207 C26.077,259.313 26.345,259.457 26.455,259.440 C26.550,259.423 26.697,259.328 26.805,259.254 L26.849,259.221 C26.888,259.193 26.995,259.119 27.111,259.031 C27.116,259.040 27.119,259.044 27.119,259.044 C27.119,259.044 27.370,259.078 27.441,259.207 C27.513,259.332 27.548,259.567 27.513,259.709 C27.478,259.850 27.746,259.978 27.836,260.085 C27.925,260.192 28.359,260.769 28.501,260.949 C28.644,261.126 28.932,261.451 28.932,261.451 L29.076,261.795 L28.773,262.011 C28.773,262.011 28.449,261.992 28.340,261.956 C28.233,261.920 28.144,262.028 28.144,262.028 C28.144,262.028 28.070,261.992 27.910,261.850 C27.748,261.705 27.858,261.868 27.659,261.977 C27.462,262.083 27.910,262.245 28.021,262.336 C28.125,262.430 28.269,262.586 28.340,262.681 C28.412,262.770 28.593,262.648 28.593,262.501 C28.593,262.356 28.611,262.232 28.611,262.232 L28.932,262.232 L29.132,261.999 L29.297,261.856 L29.369,261.655 L29.242,261.296 C29.242,261.296 29.462,261.224 29.543,261.224 C29.637,261.224 29.724,261.494 29.724,261.494 L29.817,261.530 C29.817,261.530 29.817,261.314 29.763,261.224 C29.710,261.132 29.422,260.919 29.422,260.919 C29.422,260.919 29.099,260.793 29.004,260.722 C28.915,260.650 28.705,260.273 28.593,260.076 C28.487,259.877 28.560,259.857 28.540,259.770 C28.521,259.679 28.340,259.571 28.269,259.449 C28.197,259.320 28.219,259.143 28.219,259.143 C28.219,259.143 28.381,259.035 28.560,258.927 C28.624,258.889 28.655,258.861 28.658,258.846 C28.730,258.920 28.917,259.136 28.917,259.267 C28.917,259.431 28.988,259.610 29.024,259.717 C29.060,259.823 29.275,259.914 29.563,259.968 C29.852,260.021 29.760,260.219 29.760,260.219 C29.760,260.219 30.029,260.543 30.063,260.760 C30.096,260.976 30.096,261.084 30.116,261.353 C30.135,261.622 30.263,261.655 30.348,261.914 C30.439,262.163 30.472,262.163 30.528,262.359 C30.553,262.452 30.570,262.542 30.602,262.632 C30.425,263.292 30.236,263.957 30.037,264.626 C29.870,264.782 29.749,265.352 29.749,265.352 C29.749,265.352 29.694,265.385 29.616,265.404 L29.618,265.404 L29.244,265.313 L29.244,265.313 C29.057,265.110 28.619,265.029 28.390,264.879 C28.155,264.719 28.155,264.379 27.970,264.221 C27.786,264.060 27.655,264.143 27.655,264.143 C27.655,264.143 27.132,264.037 27.025,263.906 C26.969,263.835 26.875,263.729 26.800,263.645 C26.735,263.568 26.682,263.514 26.682,263.514 C26.682,263.514 26.732,263.464 26.800,263.411 C26.878,263.344 26.977,263.267 27.049,263.251 C27.180,263.223 26.997,262.959 26.838,262.697 C26.680,262.434 27.258,262.355 27.231,262.224 C27.204,262.095 26.955,262.092 26.799,262.019 L26.785,262.014 C26.627,261.933 26.263,262.014 26.263,262.014 L25.763,261.911 C25.763,261.911 25.605,261.961 25.475,262.014 C25.428,262.033 25.368,262.024 25.305,261.992 C25.192,261.946 25.071,261.828 25.005,261.693 C24.934,261.549 24.785,261.579 24.637,261.569 C24.567,261.562 24.494,261.550 24.429,261.510 C24.357,261.467 24.295,261.451 24.237,261.454 C24.121,261.458 24.015,261.520 23.878,261.539 C23.707,261.561 23.479,261.617 23.328,261.636 C23.296,261.643 23.270,261.646 23.247,261.646 C23.116,261.646 22.957,261.749 22.775,261.856 C22.591,261.960 22.541,261.566 22.541,261.566 C22.541,261.566 22.485,261.566 22.381,261.547 C22.276,261.526 22.112,261.489 21.909,261.408 C21.516,261.248 21.698,261.013 21.698,261.013 C21.698,261.013 21.626,261.072 21.477,261.203 C21.427,261.245 21.373,261.297 21.308,261.355 C21.044,261.589 20.966,261.696 20.730,261.670 C20.497,261.641 20.364,261.749 20.206,261.828 C20.061,261.902 19.740,262.461 19.693,262.552 C16.567,261.475 13.477,260.212 10.685,258.727 C10.564,258.661 10.367,258.554 10.125,258.417 C10.125,258.417 10.125,258.417 10.125,258.418 C9.711,258.185 9.160,257.856 8.573,257.478 C8.948,255.531 9.624,253.651 10.580,251.905 C10.565,251.928 10.551,251.949 10.544,251.974 C7.108,252.024 4.881,252.669 4.545,253.927 C3.765,256.854 13.434,261.992 26.141,265.410 C27.585,265.779 28.998,266.122 30.378,266.430 ZM26.516,261.046 C26.429,261.080 26.429,261.277 26.429,261.277 C26.429,261.277 26.499,261.365 26.588,261.380 C26.645,261.393 26.712,261.387 26.806,261.366 C26.848,261.357 26.901,261.344 26.958,261.328 C27.131,261.277 27.027,261.187 27.062,261.065 C27.096,260.942 27.096,260.781 27.166,260.659 C27.236,260.537 27.024,260.447 27.024,260.447 C27.024,260.447 26.861,260.677 26.802,260.769 L26.796,260.781 C26.744,260.867 26.605,261.010 26.516,261.046 ZM26.805,260.104 C26.899,260.085 27.106,260.029 27.151,259.919 C27.201,259.778 27.184,259.850 27.239,259.690 C27.293,259.530 27.097,259.743 27.097,259.743 L26.867,259.883 L26.805,260.020 L26.764,260.113 C26.764,260.113 26.778,260.113 26.805,260.104 Z" class="cls-1"/>
    <path d="M40.938,165.489 C38.771,161.780 35.573,160.093 31.361,160.112 C28.960,160.127 26.560,160.032 24.165,160.140 C22.055,160.235 20.092,159.920 18.245,158.881 C17.376,158.391 16.396,158.229 15.432,158.010 C13.100,157.482 10.825,156.779 8.490,156.202 C5.207,155.391 4.427,154.922 2.006,153.964 C1.610,153.807 1.127,153.934 0.936,153.445 C0.757,152.974 0.729,152.481 1.067,152.078 C1.653,151.382 2.246,151.047 3.299,151.108 C3.377,151.111 3.471,151.111 3.535,151.075 C5.428,150.006 5.425,150.731 7.349,150.889 L12.762,151.582 C13.716,151.511 20.872,153.246 21.283,152.426 C19.069,152.426 16.488,150.699 16.803,150.284 C17.367,149.539 18.154,149.207 19.102,149.210 C21.312,149.217 23.490,149.288 25.657,149.942 C27.281,150.435 28.952,150.354 30.642,149.677 C33.399,148.574 36.361,148.214 38.960,149.905 C42.163,151.991 45.202,154.340 47.526,157.492 C50.226,161.163 51.531,162.001 54.486,165.462 L40.938,165.489 ZM43.549,132.068 C43.157,132.479 42.748,133.032 42.308,133.641 C41.431,134.831 40.276,136.106 38.754,137.033 C37.999,137.492 37.182,137.902 36.324,138.180 C35.471,138.475 34.591,138.666 33.771,138.773 C33.036,138.861 31.358,139.084 30.839,139.060 C31.238,138.449 31.657,137.833 32.137,137.256 C32.453,136.830 32.827,136.459 33.175,136.076 C33.523,135.689 33.923,135.374 34.284,135.032 C34.667,134.723 35.060,134.453 35.428,134.182 C35.824,133.962 36.201,133.754 36.546,133.563 C36.918,133.426 37.260,133.297 37.564,133.186 C37.861,133.050 38.151,133.052 38.375,132.994 C38.836,132.911 39.100,132.863 39.100,132.863 C39.100,132.863 38.834,132.891 38.368,132.942 C38.138,132.982 37.841,132.961 37.532,133.075 C37.216,133.167 36.858,133.273 36.469,133.385 C36.100,133.555 35.702,133.738 35.276,133.933 C34.886,134.182 34.458,134.431 34.039,134.719 C33.649,135.043 33.209,135.341 32.821,135.710 C32.436,136.078 32.020,136.435 31.670,136.845 C31.248,137.296 30.853,137.761 30.478,138.231 C30.474,138.161 30.462,138.089 30.465,138.016 C30.458,137.327 30.594,136.465 30.890,135.555 C31.196,134.652 31.681,133.727 32.340,132.887 C32.988,132.027 33.833,131.285 34.786,130.679 C35.745,130.083 36.820,129.628 37.949,129.420 C39.069,129.192 40.231,129.197 41.254,129.426 C42.279,129.658 43.140,130.123 43.629,130.579 C43.881,130.783 44.036,131.040 44.135,131.184 C44.226,131.339 44.274,131.425 44.274,131.425 C44.274,131.425 44.198,131.481 44.058,131.584 C43.924,131.683 43.736,131.892 43.549,132.068 ZM30.088,139.543 C29.927,139.805 29.788,140.058 29.643,140.311 C34.964,141.181 39.350,144.827 41.267,149.716 C40.916,149.479 40.569,149.249 40.236,149.033 C37.540,147.275 34.203,147.133 30.404,148.654 C29.084,149.184 27.783,149.255 26.513,148.873 C24.103,148.143 21.719,148.076 19.466,148.069 C17.965,148.069 16.723,148.667 15.868,149.797 C15.653,150.077 15.533,150.412 15.509,150.757 C14.350,150.551 13.672,150.444 13.228,150.441 L12.871,150.396 C14.597,145.294 18.965,141.415 24.348,140.387 C24.248,140.214 24.159,140.047 24.052,139.871 C23.903,139.632 23.606,138.989 23.646,138.835 C23.663,138.742 23.659,138.650 23.663,138.559 C23.288,138.089 22.893,137.622 22.471,137.173 C22.116,136.763 21.702,136.406 21.317,136.038 C20.930,135.668 20.491,135.370 20.100,135.048 C19.679,134.760 19.253,134.507 18.862,134.261 C18.438,134.067 18.039,133.883 17.668,133.713 C17.278,133.599 16.922,133.494 16.607,133.403 C16.296,133.290 16.002,133.311 15.770,133.269 C15.305,133.220 15.040,133.192 15.040,133.192 C15.040,133.192 15.301,133.238 15.762,133.322 C15.988,133.381 16.277,133.379 16.575,133.514 C16.877,133.628 17.219,133.754 17.592,133.891 C17.937,134.083 18.315,134.291 18.710,134.510 C19.075,134.781 19.471,135.051 19.856,135.360 C20.214,135.702 20.615,136.018 20.964,136.403 C21.311,136.789 21.684,137.159 21.999,137.585 C22.481,138.162 22.901,138.775 23.298,139.386 C22.781,139.412 21.101,139.189 20.365,139.102 C19.547,138.995 18.666,138.805 17.816,138.509 C16.953,138.230 16.140,137.821 15.384,137.361 C13.862,136.434 12.706,135.159 11.830,133.968 C11.389,133.360 10.982,132.808 10.591,132.397 C10.403,132.219 10.214,132.011 10.079,131.913 C9.939,131.806 9.865,131.751 9.865,131.751 C9.865,131.751 9.914,131.668 10.003,131.512 C10.101,131.368 10.259,131.112 10.510,130.907 C10.998,130.451 11.863,129.986 12.886,129.755 C13.909,129.524 15.074,129.521 16.191,129.748 C17.321,129.956 18.395,130.413 19.355,131.007 C20.310,131.613 21.152,132.356 21.799,133.215 C22.461,134.055 22.946,134.980 23.251,135.883 C23.548,136.794 23.684,137.655 23.676,138.343 C23.680,138.417 23.665,138.487 23.664,138.558 C24.126,139.142 24.535,139.718 24.915,140.283 C25.658,140.171 26.420,140.107 27.194,140.107 C27.287,140.107 27.374,140.127 27.468,140.129 C27.576,139.632 27.680,139.124 27.774,138.588 C27.833,138.219 28.096,137.318 28.269,137.203 C28.367,137.123 28.441,137.030 28.526,136.942 C28.472,138.084 28.357,139.172 28.219,140.187 C28.486,140.206 28.757,140.216 29.021,140.249 C29.450,139.597 29.936,138.912 30.478,138.231 C30.481,138.323 30.478,138.414 30.494,138.509 C30.534,138.660 30.236,139.304 30.088,139.543 ZM30.441,133.923 C29.943,135.084 29.327,136.062 28.723,136.741 C28.662,136.817 28.588,136.875 28.523,136.944 C28.560,136.150 28.573,135.344 28.542,134.529 C28.547,133.811 28.446,133.096 28.383,132.393 C28.319,131.692 28.141,131.011 28.032,130.351 C27.864,129.698 27.658,129.078 27.484,128.493 C27.231,127.930 26.994,127.401 26.774,126.910 C26.486,126.460 26.221,126.046 25.987,125.680 C25.779,125.296 25.462,125.061 25.269,124.819 C24.852,124.364 24.611,124.106 24.611,124.106 C24.611,124.106 24.832,124.382 25.217,124.866 C25.390,125.118 25.682,125.369 25.860,125.764 C26.063,126.140 26.292,126.564 26.543,127.025 C26.721,127.516 26.913,128.048 27.120,128.613 C27.245,129.199 27.403,129.812 27.519,130.453 C27.577,131.104 27.701,131.767 27.713,132.455 C27.726,133.139 27.772,133.832 27.716,134.530 C27.693,135.522 27.576,136.498 27.440,137.452 C26.904,137.025 25.426,135.344 24.771,134.618 C24.049,133.798 23.339,132.842 22.751,131.809 C22.136,130.783 21.684,129.668 21.333,128.552 C20.626,126.309 20.583,124.033 20.749,122.086 C20.840,121.097 20.915,120.192 20.882,119.443 C20.848,119.102 20.842,118.734 20.794,118.518 C20.749,118.291 20.720,118.170 20.720,118.170 C20.720,118.170 20.840,118.131 21.065,118.055 C21.287,117.995 21.667,117.876 22.096,117.892 C22.979,117.863 24.239,118.150 25.459,118.811 C26.677,119.472 27.838,120.480 28.752,121.678 C29.694,122.866 30.368,124.257 30.805,125.683 C31.227,127.115 31.422,128.588 31.319,130.004 C31.245,131.415 30.922,132.760 30.441,133.923 Z" class="cls-1"/>
    <path d="M48.579,32.231 L22.392,32.231 C19.349,32.231 16.677,30.284 15.742,27.386 L8.534,5.034 C8.502,4.936 8.412,4.870 8.309,4.870 L6.733,4.870 C5.392,4.870 4.306,3.784 4.306,2.442 C4.306,1.101 5.392,0.013 6.733,0.013 L8.309,0.013 C10.527,0.013 12.474,1.433 13.154,3.545 L20.363,25.897 C20.647,26.779 21.464,27.374 22.392,27.374 L48.579,27.374 C49.920,27.374 51.006,28.461 51.006,29.802 C51.006,31.144 49.920,32.231 48.579,32.231 ZM45.958,23.149 C45.779,23.894 45.112,24.420 44.346,24.420 L24.043,24.420 C23.322,24.420 22.684,23.954 22.464,23.266 L17.473,7.659 C17.214,6.849 17.357,5.964 17.858,5.274 C18.360,4.588 19.160,4.181 20.011,4.181 L47.128,4.181 C47.944,4.181 48.715,4.556 49.220,5.196 C49.725,5.837 49.909,6.675 49.719,7.469 L45.958,23.149 ZM24.113,35.027 C26.250,35.027 27.984,36.761 27.984,38.900 C27.984,41.040 26.250,42.772 24.113,42.772 C21.975,42.772 20.242,41.040 20.242,38.900 C20.242,36.761 21.975,35.027 24.113,35.027 ZM44.442,35.027 C46.580,35.027 48.313,36.761 48.313,38.900 C48.313,41.040 46.580,42.772 44.442,42.772 C42.305,42.772 40.572,41.040 40.572,38.900 C40.572,36.761 42.305,35.027 44.442,35.027 Z" class="cls-1"/>
  </g>
</svg>
